<svg width="51" height="50" viewBox="0 0 51 50" fill="none" xmlns="http://www.w3.org/2000/svg">
<rect x="1.30005" y="0.5" width="49" height="49" rx="24.5" fill="white"/>
<rect x="1.30005" y="0.5" width="49" height="49" rx="24.5" stroke="#88A6FA"/>
<path d="M30.4778 27.9299C31.4662 26.5841 32.0501 24.9227 32.0501 23.125C32.0501 18.6377 28.4124 15 23.925 15C19.4377 15 15.8 18.6377 15.8 23.125C15.8 27.6123 19.4377 31.25 23.925 31.25C25.7233 31.25 27.3851 30.6658 28.731 29.6769L28.7299 29.6777C28.7668 29.7277 28.8078 29.7756 28.8531 29.8208L33.6662 34.6339C34.1543 35.122 34.9458 35.122 35.4339 34.6339C35.9221 34.1457 35.9221 33.3543 35.4339 32.8661L30.6209 28.053C30.5756 28.0078 30.5277 27.9667 30.4778 27.9299ZM30.8001 23.125C30.8001 26.922 27.722 30 23.925 30C20.1281 30 17.05 26.922 17.05 23.125C17.05 19.328 20.1281 16.25 23.925 16.25C27.722 16.25 30.8001 19.328 30.8001 23.125Z" fill="#88A6FA"/>
</svg>
