<svg width="512" height="512" viewBox="0 0 512 512" fill="none" xmlns="http://www.w3.org/2000/svg">
<g clip-path="url(#clip0_1341_245)">
<rect width="512" height="512" rx="24" fill="black"/>
<path d="M256 512C397.385 512 512 397.385 512 256C512 114.615 397.385 0 256 0C114.615 0 0 114.615 0 256C0 397.385 114.615 512 256 512Z" fill="black"/>
<path d="M301.912 170.207V247.347H210.546V78.8401C261.006 78.8401 301.912 119.746 301.912 170.207Z" fill="#396AF6"/>
<path d="M323.949 438.463V269.968H415.316V347.109C415.316 397.569 374.41 438.475 323.949 438.475V438.463Z" fill="#E64940"/>
<path d="M188.062 78.8435V247.339H96.6958V170.198C96.6958 119.738 137.602 78.8318 188.062 78.8318V78.8435Z" fill="#396AF6"/>
<path d="M235.559 186.1H165.989V202.744H235.559V186.1Z" fill="#396AF6"/>
<path d="M332.172 269.956H165.989V286.6H332.172V269.956Z" fill="#E64940"/>
<path d="M198.521 87.1658C205.341 87.1658 211.667 88.8091 216.902 91.5792C217.618 91.9548 218.405 92.1778 219.215 92.1778H220.494V89.126C220.494 83.4449 215.893 78.8438 210.212 78.8438H187.499C181.595 78.8438 176.794 83.6327 176.794 89.5486V92.1778H179.048C184.483 89.0438 191.208 87.1658 198.509 87.1658H198.521Z" fill="#396AF6"/>
<path d="M373.94 93.7506C374.891 97.2719 375.408 100.981 375.408 104.808C375.408 128.154 356.475 147.087 333.128 147.087C329.971 147.087 326.907 146.735 323.949 146.077V247.351H415.316V170.21C415.316 138.213 398.848 110.066 373.94 93.7506Z" fill="#FFC640"/>
<path d="M138.071 423.557C137.121 420.036 136.604 416.327 136.604 412.5C136.604 389.154 155.537 370.221 178.883 370.221C182.041 370.221 185.104 370.573 188.062 371.23V269.957H96.6958V347.098C96.6958 379.095 113.164 407.242 138.071 423.557Z" fill="#E64940"/>
<path d="M332.172 133.353C348.287 133.353 361.352 120.288 361.352 104.173C361.352 88.0571 348.287 74.9928 332.172 74.9928C316.056 74.9928 302.992 88.0571 302.992 104.173C302.992 120.288 316.056 133.353 332.172 133.353Z" fill="white"/>
<path d="M178.583 438.933C193.241 438.933 205.122 427.051 205.122 412.393C205.122 397.736 193.241 385.854 178.583 385.854C163.926 385.854 152.044 397.736 152.044 412.393C152.044 427.051 163.926 438.933 178.583 438.933Z" fill="#FFC640"/>
<path d="M210.322 269.956V384.962C216.684 392.321 220.534 401.899 220.534 412.381C220.534 422.241 217.13 431.291 211.437 438.451H301.677V269.956H210.31H210.322Z" fill="#E64940"/>
</g>
<defs>
<clipPath id="clip0_1341_245">
<rect width="512" height="512" rx="24" fill="white"/>
</clipPath>
</defs>
</svg>
