<svg width="48" height="48" viewBox="0 0 48 48" fill="none" xmlns="http://www.w3.org/2000/svg">
<g clip-path="url(#clip0_296_6419)">
<path d="M47.4999 23.9999C47.4999 36.9783 36.9788 47.4994 24.0004 47.4994C11.022 47.4994 0.500977 36.9783 0.500977 23.9999C0.500977 11.0216 11.022 0.500488 24.0004 0.500488C36.9788 0.500488 47.4999 11.0216 47.4999 23.9999Z" fill="#0F0F0F" stroke="white"/>
<path d="M28.3056 15.9573V23.189H19.7402V7.39185C24.4708 7.39185 28.3056 11.2267 28.3056 15.9573Z" fill="white"/>
<path d="M30.3711 41.1054V25.3093H38.9365V32.5411C38.9365 37.2716 35.1017 41.1065 30.3711 41.1065V41.1054Z" fill="white"/>
<path d="M17.6318 7.39185V23.1879H9.06641V15.9562C9.06641 11.2256 12.9013 7.39075 17.6318 7.39075V7.39185Z" fill="white"/>
<path d="M22.0855 17.4471H15.5635V19.0075H22.0855V17.4471Z" fill="white"/>
<path d="M31.1428 25.3083H15.5635V26.8687H31.1428V25.3083Z" fill="white"/>
<path d="M18.612 8.17202C19.2513 8.17202 19.8444 8.32607 20.3352 8.58577C20.4023 8.62098 20.4761 8.64189 20.552 8.64189H20.6719V8.35579C20.6719 7.8232 20.2406 7.39185 19.708 7.39185H17.5787C17.0253 7.39185 16.5752 7.8408 16.5752 8.3954V8.64189H16.7865C17.2959 8.34808 17.9265 8.17202 18.6109 8.17202H18.612Z" fill="white"/>
<path d="M35.0576 8.78931C35.1468 9.11942 35.1952 9.46715 35.1952 9.82587C35.1952 12.0145 33.4203 13.7895 31.2316 13.7895C30.9356 13.7895 30.6484 13.7565 30.3711 13.6948V23.189H38.9365V15.9572C38.9365 12.9576 37.3927 10.3188 35.0576 8.78931Z" fill="white"/>
<path d="M12.9453 39.708C12.8561 39.3779 12.8077 39.0302 12.8077 38.6714C12.8077 36.4828 14.5826 34.7079 16.7713 34.7079C17.0673 34.7079 17.3545 34.7409 17.6318 34.8025V25.3083H9.06641V32.5401C9.06641 35.5397 10.6102 38.1785 12.9453 39.708Z" fill="white"/>
<path d="M31.1418 12.502C32.6526 12.502 33.8774 11.2773 33.8774 9.76645C33.8774 8.25564 32.6526 7.03088 31.1418 7.03088C29.631 7.03088 28.4062 8.25564 28.4062 9.76645C28.4062 11.2773 29.631 12.502 31.1418 12.502Z" fill="white"/>
<path d="M16.7429 41.1495C18.1169 41.1495 19.2308 40.0356 19.2308 38.6616C19.2308 37.2875 18.1169 36.1736 16.7429 36.1736C15.3688 36.1736 14.2549 37.2875 14.2549 38.6616C14.2549 40.0356 15.3688 41.1495 16.7429 41.1495Z" fill="white"/>
<path d="M19.7179 25.3083V36.0899C20.3143 36.7799 20.6752 37.6778 20.6752 38.6605C20.6752 39.5848 20.3561 40.4332 19.8224 41.1044H28.2822V25.3083H19.7168H19.7179Z" fill="white"/>
</g>
<defs>
<clipPath id="clip0_296_6419">
<rect width="48" height="48" fill="white" transform="translate(0 0.000610352)"/>
</clipPath>
</defs>
</svg>
