<svg width="56" height="56" viewBox="0 0 56 56" fill="none" xmlns="http://www.w3.org/2000/svg">
<path d="M28.0513 3.57227C25.0289 3.57227 22.5781 14.5348 22.5781 28.0579C22.5781 41.581 25.0289 52.5436 28.0513 52.5436C31.0738 52.5436 33.5246 41.581 33.5246 28.0579C33.5246 14.5348 31.0738 3.57227 28.0513 3.57227ZM28.4292 51.1617C28.0836 51.6227 27.738 51.2769 27.738 51.2769C26.346 49.6641 25.6501 46.6679 25.6501 46.6679C23.2154 38.8326 23.7949 22.0095 23.7949 22.0095C24.9391 8.65371 27.0205 5.49867 27.7288 4.79822C27.8011 4.72673 27.8963 4.68304 27.9977 4.67485C28.0991 4.66665 28.2001 4.69448 28.283 4.75342C29.3107 5.48164 30.1726 8.52715 30.1726 8.52715C32.7179 17.9757 32.4874 26.8481 32.4874 26.8481C32.7179 34.5683 31.212 43.2102 31.212 43.2102C30.0528 49.7779 28.4292 51.1617 28.4292 51.1617Z" fill="#FFC640"/>
<path d="M49.295 15.8726C47.7902 13.25 37.0626 16.58 25.327 23.3094C13.5914 30.0388 5.31327 37.6205 6.81698 40.242C8.32069 42.8635 19.0494 39.5346 30.785 32.8052C42.5206 26.0758 50.7987 18.4941 49.295 15.8726ZM8.20533 39.8823C7.6292 39.8097 7.75935 39.3361 7.75935 39.3361C8.46607 37.3266 10.715 35.2318 10.715 35.2318C16.3023 29.2205 31.1839 21.3516 31.1839 21.3516C43.3368 15.6974 47.1117 15.936 48.0693 16.1996C48.1675 16.2271 48.253 16.2884 48.3104 16.3728C48.3678 16.4572 48.3934 16.5591 48.3829 16.6606C48.2677 17.915 46.0495 20.1774 46.0495 20.1774C39.1252 27.0898 31.3141 31.306 31.3141 31.306C24.7323 35.3492 16.4868 38.3416 16.4868 38.3416C10.2128 40.6024 8.20555 39.8823 8.20555 39.8823H8.20533Z" fill="#FFC640"/>
<path d="M49.2377 40.3292C50.7542 37.7135 42.4969 30.0971 30.8025 23.317C19.1081 16.537 8.38191 13.1658 6.86677 15.7859C5.35164 18.4061 13.6076 26.018 25.3087 32.7981C37.0098 39.5781 47.7226 42.9495 49.2377 40.3292ZM7.87163 16.7966C7.64763 16.2655 8.1205 16.1376 8.1205 16.1376C10.214 15.7423 13.1547 16.6432 13.1547 16.6432C21.1548 18.465 35.4203 27.4008 35.4203 27.4008C46.4037 35.0865 48.0881 38.4718 48.3406 39.4327C48.3663 39.5313 48.3563 39.6358 48.3124 39.7277C48.2686 39.8196 48.1937 39.8931 48.1009 39.9352C46.9556 40.4595 43.8881 39.6782 43.8881 39.6782C34.4338 37.1432 26.8727 32.4986 26.8727 32.4986C20.079 28.8344 13.3612 23.1963 13.3612 23.1963C8.25669 18.8984 7.8732 16.8025 7.8732 16.8025L7.87163 16.7966Z" fill="#FFC640"/>
<path d="M28.0056 30.8804C29.5966 30.8804 30.8863 29.5907 30.8863 27.9998C30.8863 26.4088 29.5966 25.1191 28.0056 25.1191C26.4147 25.1191 25.125 26.4088 25.125 27.9998C25.125 29.5907 26.4147 30.8804 28.0056 30.8804Z" fill="#FFC640"/>
<path d="M39.8114 18.6667C40.7342 18.6667 41.4823 17.8929 41.4823 16.9383C41.4823 15.9838 40.7342 15.21 39.8114 15.21C38.8887 15.21 38.1406 15.9838 38.1406 16.9383C38.1406 17.8929 38.8887 18.6667 39.8114 18.6667Z" fill="#FFC640"/>
<path d="M12.3896 24.5432C13.3123 24.5432 14.0604 23.7694 14.0604 22.8148C14.0604 21.8603 13.3123 21.0864 12.3896 21.0864C11.4668 21.0864 10.7188 21.8603 10.7188 22.8148C10.7188 23.7694 11.4668 24.5432 12.3896 24.5432Z" fill="#FFC640"/>
<path d="M24.6083 45.7449C25.5311 45.7449 26.2791 44.971 26.2791 44.0165C26.2791 43.0619 25.5311 42.2881 24.6083 42.2881C23.6856 42.2881 22.9375 43.0619 22.9375 44.0165C22.9375 44.971 23.6856 45.7449 24.6083 45.7449Z" fill="#FFC640"/>
</svg>
