<svg width="120" height="120" viewBox="0 0 120 120" fill="none" xmlns="http://www.w3.org/2000/svg">
<rect width="120" height="120" rx="60" fill="#5865F2"/>
<path d="M87.7676 34.1864C82.5891 31.7635 77.0519 30.0027 71.263 29C70.552 30.2854 69.7214 32.0142 69.1488 33.3895C62.995 32.4641 56.8978 32.4641 50.8572 33.3895C50.2846 32.0142 49.4352 30.2854 48.7179 29C42.9227 30.0027 37.3792 31.77 32.2006 34.1993C21.7555 49.9833 18.924 65.3753 20.3397 80.5487C27.2675 85.7222 33.9814 88.8649 40.5819 90.9214C42.2116 88.6785 43.6651 86.2942 44.9173 83.7813C42.5325 82.8752 40.2484 81.7569 38.0902 80.4587C38.6628 80.0346 39.2229 79.5911 39.7639 79.1348C52.9273 85.2916 67.2297 85.2916 80.2358 79.1348C80.7832 79.5911 81.3432 80.0346 81.9095 80.4587C79.7449 81.7633 77.4546 82.8815 75.0699 83.7878C76.322 86.2942 77.7692 88.6849 79.4052 90.9278C86.0121 88.8713 92.7322 85.7286 99.66 80.5487C101.321 62.9588 96.8222 47.7082 87.7676 34.1864ZM46.7106 71.2172C42.7591 71.2172 39.5185 67.5282 39.5185 63.0359C39.5185 58.5436 42.6899 54.8483 46.7106 54.8483C50.7314 54.8483 53.9719 58.5372 53.9027 63.0359C53.9089 67.5282 50.7314 71.2172 46.7106 71.2172ZM73.2891 71.2172C69.3376 71.2172 66.0971 67.5282 66.0971 63.0359C66.0971 58.5436 69.2683 54.8483 73.2891 54.8483C77.3098 54.8483 80.5504 58.5372 80.4812 63.0359C80.4812 67.5282 77.3098 71.2172 73.2891 71.2172Z" fill="white"/>
</svg>
