<svg width="26" height="26" viewBox="0 0 26 26" fill="none" xmlns="http://www.w3.org/2000/svg">
<path d="M26 13C26 5.82062 20.1794 0 13 0C5.82062 0 0 5.82062 0 13C0 20.1794 5.82062 26 13 26C20.1794 26 26 20.1794 26 13ZM19.7069 11.2069L13.7069 17.2069C13.5194 17.3943 13.2651 17.4995 13 17.4995C12.7349 17.4995 12.4806 17.3943 12.2931 17.2069L6.29313 11.2069C6.11351 11.0178 6.01485 10.7661 6.01819 10.5053C6.02152 10.2445 6.1266 9.9954 6.311 9.811C6.4954 9.6266 6.74454 9.52152 7.0053 9.51819C7.26606 9.51485 7.51781 9.61351 7.70687 9.79313L13 15.0856L18.2931 9.79313C18.4822 9.61351 18.7339 9.51485 18.9947 9.51819C19.2555 9.52152 19.5046 9.6266 19.689 9.811C19.8734 9.9954 19.9785 10.2445 19.9818 10.5053C19.9852 10.7661 19.8865 11.0178 19.7069 11.2069Z" fill="#484D57"/>
</svg>
