<svg width="748" height="478" viewBox="0 0 748 478" fill="none" xmlns="http://www.w3.org/2000/svg">
<path d="M679.723 43.347H68.262V434.954H679.723V43.347Z" fill="#E6E6E6"/>
<path d="M664.238 92.464H87.746V411.786H664.238V92.464Z" fill="white"/>
<path d="M679.461 43H68V68.977H679.461V43Z" fill="#6188F8"/>
<path d="M87.305 61.096C89.9642 61.096 92.12 58.9403 92.12 56.281C92.12 53.6217 89.9642 51.466 87.305 51.466C84.6457 51.466 82.49 53.6217 82.49 56.281C82.49 58.9403 84.6457 61.096 87.305 61.096Z" fill="white"/>
<path d="M105.58 61.096C108.239 61.096 110.395 58.9403 110.395 56.281C110.395 53.6217 108.239 51.466 105.58 51.466C102.921 51.466 100.765 53.6217 100.765 56.281C100.765 58.9403 102.921 61.096 105.58 61.096Z" fill="white"/>
<path d="M123.855 61.096C126.514 61.096 128.67 58.9403 128.67 56.281C128.67 53.6217 126.514 51.466 123.855 51.466C121.196 51.466 119.04 53.6217 119.04 56.281C119.04 58.9403 121.196 61.096 123.855 61.096Z" fill="white"/>
<path d="M188.605 137.221L150.472 174.878L188.605 212.534L197.185 203.954L168.35 175.115L197.426 146.039L188.605 137.221Z" fill="#6188F8"/>
<path d="M219.85 137.221L257.982 174.878L219.85 212.534L211.27 203.954L240.107 175.116L211.029 146.039L219.85 137.221Z" fill="#6188F8"/>
<path d="M343.194 146.671C340.075 146.671 337.547 148.465 337.547 150.677C337.547 152.889 340.075 154.683 343.194 154.683H609.408C612.527 154.683 615.055 152.889 615.055 150.677C615.055 148.465 612.527 146.671 609.408 146.671H343.194Z" fill="#E6E6E6"/>
<path d="M606.761 366.15H158.923C154.345 366.15 150.635 363.507 150.63 360.25V281.208C150.635 277.951 154.345 275.308 158.923 275.308H606.761C611.339 275.308 615.049 277.951 615.054 281.208V360.249C615.05 363.506 611.339 366.146 606.761 366.15ZM158.923 277.666C156.176 277.666 153.95 279.252 153.947 281.206V360.247C153.947 362.201 156.176 363.785 158.923 363.787H606.761C609.508 363.787 611.734 362.201 611.737 360.247V281.208C611.737 279.254 609.508 277.67 606.761 277.668L158.923 277.666Z" fill="#E6E6E6"/>
<path d="M205.04 340.731C216.106 340.731 225.076 331.761 225.076 320.695C225.076 309.629 216.106 300.659 205.04 300.659C193.974 300.659 185.004 309.629 185.004 320.695C185.004 331.761 193.974 340.731 205.04 340.731Z" fill="#E6E6E6"/>
<path d="M261.55 304.671C260.488 304.67 259.468 305.09 258.716 305.841C257.964 306.591 257.54 307.609 257.539 308.672C257.537 309.734 257.958 310.754 258.708 311.506C259.459 312.258 260.477 312.682 261.54 312.683H450.411C451.473 312.683 452.492 312.261 453.244 311.51C453.995 310.758 454.417 309.739 454.417 308.677C454.417 307.615 453.995 306.596 453.244 305.844C452.492 305.093 451.473 304.671 450.411 304.671H261.55Z" fill="#6188F8"/>
<path d="M261.55 328.708C261.024 328.707 260.503 328.81 260.017 329.011C259.53 329.212 259.088 329.506 258.716 329.878C257.964 330.628 257.54 331.646 257.539 332.709C257.537 333.771 257.958 334.791 258.708 335.543C259.459 336.295 260.477 336.719 261.54 336.72H342.816C343.878 336.721 344.898 336.301 345.65 335.55C346.402 334.8 346.826 333.782 346.827 332.719C346.829 331.657 346.408 330.637 345.658 329.885C344.907 329.133 343.889 328.709 342.826 328.708H261.55Z" fill="#6188F8"/>
<path d="M341.25 170.671C340.243 170.752 339.304 171.209 338.619 171.952C337.934 172.694 337.554 173.667 337.554 174.677C337.554 175.687 337.934 176.66 338.619 177.402C339.304 178.145 340.243 178.602 341.25 178.683H515.72C516.727 178.602 517.666 178.145 518.351 177.402C519.036 176.66 519.416 175.687 519.416 174.677C519.416 173.667 519.036 172.694 518.351 171.952C517.666 171.209 516.727 170.752 515.72 170.671H341.25Z" fill="#E6E6E6"/>
<path d="M342.398 194.671C339.719 194.671 337.547 196.465 337.547 198.677C337.547 200.889 339.719 202.683 342.398 202.683H571.098C573.777 202.683 575.949 200.889 575.949 198.677C575.949 196.465 573.777 194.671 571.098 194.671H342.398Z" fill="#E6E6E6"/>
</svg>
