<svg width="120" height="120" viewBox="0 0 120 120" fill="none" xmlns="http://www.w3.org/2000/svg">
<rect width="120" height="120" rx="60" fill="black"/>
<path d="M40.2859 99.7171C35.5283 99.5007 32.9438 98.7089 31.2248 98.0385C28.947 97.1516 27.3231 96.0959 25.6136 94.3888C23.9041 92.6817 22.846 91.0577 21.9639 88.78C21.2934 87.061 20.5017 84.4765 20.2853 79.7188C20.0476 74.576 20 73.033 20 60.0036C20 46.9742 20.0523 45.4335 20.2829 40.2859C20.4993 35.5283 21.2958 32.9486 21.9615 31.2248C22.8484 28.947 23.9064 27.3231 25.6112 25.6112C27.3183 23.9041 28.9423 22.8436 31.2224 21.9615C32.9414 21.2911 35.5259 20.4993 40.2835 20.2829C45.4287 20.0476 46.9742 20 59.9988 20C73.0282 20 74.5689 20.0523 79.7165 20.2829C84.4741 20.4993 87.0538 21.2958 88.7776 21.9615C91.0554 22.8436 92.6793 23.9041 94.3888 25.6112C96.0983 27.3183 97.1516 28.9446 98.0385 31.2224C98.7089 32.9414 99.5007 35.5259 99.7171 40.2835C99.9524 45.4311 100 46.9718 100 60.0012C100 73.0258 99.9524 74.5713 99.7171 79.7188C99.5007 84.4765 98.7042 87.061 98.0385 88.78C97.1516 91.0577 96.0959 92.6817 94.3888 94.3888C92.6817 96.0959 91.0554 97.1516 88.7776 98.0385C87.0586 98.7089 84.4741 99.5007 79.7165 99.7171C74.5737 99.9524 73.0282 100 59.9988 100C46.9742 100 45.4287 99.9548 40.2859 99.7171Z" fill="url(#paint0_radial_174_674)"/>
<path d="M40.2859 99.7171C35.5283 99.5007 32.9438 98.7089 31.2248 98.0385C28.947 97.1516 27.3231 96.0959 25.6136 94.3888C23.9041 92.6817 22.846 91.0577 21.9639 88.78C21.2934 87.061 20.5017 84.4765 20.2853 79.7188C20.0476 74.576 20 73.033 20 60.0036C20 46.9742 20.0523 45.4335 20.2829 40.2859C20.4993 35.5283 21.2958 32.9486 21.9615 31.2248C22.8484 28.947 23.9064 27.3231 25.6112 25.6112C27.3183 23.9041 28.9423 22.8436 31.2224 21.9615C32.9414 21.2911 35.5259 20.4993 40.2835 20.2829C45.4287 20.0476 46.9742 20 59.9988 20C73.0282 20 74.5689 20.0523 79.7165 20.2829C84.4741 20.4993 87.0538 21.2958 88.7776 21.9615C91.0554 22.8436 92.6793 23.9041 94.3888 25.6112C96.0983 27.3183 97.1516 28.9446 98.0385 31.2224C98.7089 32.9414 99.5007 35.5259 99.7171 40.2835C99.9524 45.4311 100 46.9718 100 60.0012C100 73.0258 99.9524 74.5713 99.7171 79.7188C99.5007 84.4765 98.7042 87.061 98.0385 88.78C97.1516 91.0577 96.0959 92.6817 94.3888 94.3888C92.6817 96.0959 91.0554 97.1516 88.7776 98.0385C87.0586 98.7089 84.4741 99.5007 79.7165 99.7171C74.5737 99.9524 73.0282 100 59.9988 100C46.9742 100 45.4287 99.9548 40.2859 99.7171Z" fill="url(#paint1_radial_174_674)"/>
<path d="M50.1779 60.1705C50.1779 54.6994 54.612 50.263 60.0831 50.263C65.5543 50.263 69.9907 54.6994 69.9907 60.1705C69.9907 65.6417 65.5543 70.0781 60.0831 70.0781C54.612 70.0781 50.1779 65.6417 50.1779 60.1705ZM44.8221 60.1705C44.8221 68.5992 51.6544 75.4316 60.0831 75.4316C68.5118 75.4316 75.3442 68.5992 75.3442 60.1705C75.3442 51.7418 68.5118 44.9095 60.0831 44.9095C51.6544 44.9095 44.8223 51.7414 44.8223 60.1705M72.3821 44.3044C72.3818 45.0098 72.5907 45.6994 72.9824 46.286C73.374 46.8727 73.9309 47.33 74.5824 47.6002C75.234 47.8704 75.9511 47.9413 76.6429 47.804C77.3348 47.6667 77.9704 47.3273 78.4694 46.8287C78.9684 46.3301 79.3083 45.6948 79.4462 45.003C79.5841 44.3112 79.5137 43.5941 79.2441 42.9423C78.9744 42.2905 78.5175 41.7333 77.9312 41.3412C77.3448 40.9491 76.6554 40.7397 75.95 40.7394H75.9486C75.0031 40.7398 74.0964 41.1155 73.4277 41.7839C72.759 42.4524 72.3829 43.3589 72.3821 44.3044ZM48.0761 84.3624C45.1785 84.2305 43.6036 83.7478 42.5569 83.34C41.1693 82.7998 40.1793 82.1564 39.1384 81.1169C38.0975 80.0774 37.4531 79.0884 36.9153 77.7008C36.5073 76.6546 36.0246 75.0792 35.8929 72.1816C35.7488 69.0488 35.7201 68.1078 35.7201 60.171C35.7201 52.2343 35.7512 51.2958 35.8929 48.1604C36.0249 45.2628 36.5111 43.6905 36.9153 42.6412C37.4555 41.2537 38.0989 40.2636 39.1384 39.2227C40.1779 38.1818 41.167 37.5374 42.5569 36.9996C43.6031 36.5916 45.1785 36.1089 48.0761 35.9772C51.2089 35.8331 52.1499 35.8044 60.0831 35.8044C68.0163 35.8044 68.9583 35.835 72.0937 35.9777C74.9913 36.1097 76.5636 36.5959 77.6129 37.0001C79.0005 37.5379 79.9905 38.1837 81.0314 39.2232C82.0724 40.2627 82.7143 41.2541 83.2545 42.6417C83.6625 43.6879 84.1452 45.2633 84.2769 48.1609C84.421 51.2963 84.4498 52.2347 84.4498 60.1715C84.4498 68.1082 84.421 69.0467 84.2769 72.1821C84.1449 75.0797 83.6599 76.6546 83.2545 77.7013C82.7143 79.0888 82.0709 80.0789 81.0314 81.1174C79.9919 82.156 79.0005 82.8003 77.6129 83.3405C76.5667 83.7485 74.9913 84.2312 72.0937 84.3629C68.961 84.507 68.0199 84.5357 60.0831 84.5357C52.1464 84.5357 51.2079 84.507 48.0761 84.3629M47.83 30.6302C44.6661 30.7743 42.5041 31.2759 40.6161 32.0106C38.6619 32.7693 37.0054 33.7872 35.3513 35.4387C33.6972 37.0902 32.6819 38.7469 31.9232 40.7035C31.1885 42.5927 30.6869 44.7535 30.5428 47.9174C30.3963 51.0863 30.3628 52.0994 30.3628 60.1705C30.3628 68.2416 30.3963 69.2547 30.5428 72.4236C30.6869 75.5878 31.1885 77.7483 31.9232 79.6376C32.6819 81.5918 33.6974 83.2516 35.3513 84.9024C37.0052 86.5532 38.6595 87.5696 40.6161 88.3304C42.5077 89.0651 44.6661 89.5668 47.83 89.7109C51.0006 89.855 52.012 89.8909 60.0831 89.8909C68.1542 89.8909 69.1673 89.8573 72.3362 89.7109C75.5004 89.5668 77.6609 89.0651 79.5502 88.3304C81.5044 87.5696 83.1608 86.5539 84.815 84.9024C86.4691 83.2509 87.4822 81.5918 88.243 79.6376C88.9777 77.7483 89.4818 75.5875 89.6235 72.4236C89.7676 69.2524 89.8011 68.2416 89.8011 60.1705C89.8011 52.0994 89.7676 51.0863 89.6235 47.9174C89.4794 44.7533 88.9777 42.5915 88.243 40.7035C87.4822 38.7493 86.4665 37.0928 84.815 35.4387C83.1635 33.7846 81.5044 32.7693 79.5526 32.0106C77.6609 31.2759 75.5001 30.7719 72.3386 30.6302C69.1692 30.4854 68.1566 30.4502 60.0867 30.4502C52.0168 30.4502 51.0018 30.4837 47.8312 30.6302" fill="#FEFEFE"/>
<defs>
<radialGradient id="paint0_radial_174_674" cx="0" cy="0" r="1" gradientUnits="userSpaceOnUse" gradientTransform="translate(25.1775 98.2474) scale(101.57)">
<stop offset="0.09" stop-color="#FA8F21"/>
<stop offset="0.78" stop-color="#D82D7E"/>
</radialGradient>
<radialGradient id="paint1_radial_174_674" cx="0" cy="0" r="1" gradientUnits="userSpaceOnUse" gradientTransform="translate(75.4132 95.6787) scale(89.3828)">
<stop offset="0.64" stop-color="#8C3AAA" stop-opacity="0"/>
<stop offset="1" stop-color="#8C3AAA"/>
</radialGradient>
</defs>
</svg>
