<svg width="104" height="104" viewBox="0 0 104 104" fill="none" xmlns="http://www.w3.org/2000/svg">
<path d="M52 104C80.7188 104 104 80.7188 104 52C104 23.2812 80.7188 0 52 0C23.2812 0 0 23.2812 0 52C0 80.7188 23.2812 104 52 104Z" fill="black"/>
<path d="M61.3259 34.5732V50.2424H42.7671V16.0144C53.0169 16.0144 61.3259 24.3234 61.3259 34.5732Z" fill="#396AF6"/>
<path d="M65.8024 89.0629V54.8373H84.3612V70.5064C84.3612 80.7562 76.0522 89.0653 65.8024 89.0653V89.0629Z" fill="#E64940"/>
<path d="M38.2002 16.0151V50.2407H19.6414V34.5715C19.6414 24.3217 27.9504 16.0127 38.2002 16.0127V16.0151Z" fill="#396AF6"/>
<path d="M47.8479 37.8015H33.7166V41.1823H47.8479V37.8015Z" fill="#396AF6"/>
<path d="M67.4724 54.8347H33.7166V58.2155H67.4724V54.8347Z" fill="#E64940"/>
<path d="M40.3245 17.7056C41.7097 17.7056 42.9948 18.0393 44.0582 18.602C44.2036 18.6783 44.3633 18.7236 44.5279 18.7236H44.7877V18.1037C44.7877 16.9498 43.8531 16.0151 42.6992 16.0151H38.0857C36.8864 16.0151 35.9113 16.9879 35.9113 18.1896V18.7236H36.369C37.4729 18.087 38.8391 17.7056 40.3221 17.7056H40.3245Z" fill="#396AF6"/>
<path d="M75.9568 19.0431C76.1499 19.7584 76.2548 20.5118 76.2548 21.289C76.2548 26.0313 72.4091 29.877 67.6668 29.877C67.0255 29.877 66.4032 29.8055 65.8024 29.672V50.2431H84.3612V34.5739C84.3612 28.0745 81.0161 22.3572 75.9568 19.0431Z" fill="#FFC640"/>
<path d="M28.0458 86.0351C27.8526 85.3198 27.7477 84.5664 27.7477 83.7891C27.7477 79.0469 31.5935 75.2011 36.3357 75.2011C36.9771 75.2011 37.5994 75.2727 38.2002 75.4062V54.8351H19.6414V70.5042C19.6414 77.0036 22.9864 82.721 28.0458 86.0351Z" fill="#E64940"/>
<path d="M67.4725 27.0873C70.746 27.0873 73.3997 24.4336 73.3997 21.1601C73.3997 17.8866 70.746 15.2329 67.4725 15.2329C64.199 15.2329 61.5453 17.8866 61.5453 21.1601C61.5453 24.4336 64.199 27.0873 67.4725 27.0873Z" fill="white"/>
<path d="M36.2747 89.1582C39.2519 89.1582 41.6654 86.7447 41.6654 83.7674C41.6654 80.7902 39.2519 78.3767 36.2747 78.3767C33.2975 78.3767 30.884 80.7902 30.884 83.7674C30.884 86.7447 33.2975 89.1582 36.2747 89.1582Z" fill="#FFC640"/>
<path d="M42.7215 54.8347V78.1954C44.0138 79.6903 44.7958 81.6358 44.7958 83.7649C44.7958 85.7677 44.1044 87.6059 42.948 89.0603H61.2779V54.8347H42.7191H42.7215Z" fill="#E64940"/>
</svg>
