<svg width="250" height="48" viewBox="0 0 250 48" fill="none" xmlns="http://www.w3.org/2000/svg">
<path d="M26.813 32.6253L37.188 26.8254" stroke="#000000" stroke-width="2.94034" stroke-linecap="round"/>
<path d="M17.3748 26.9496L6.74976 20.8379" stroke="#000000" stroke-width="2.94034" stroke-linecap="round"/>
<path d="M22.7495 11.7066L27.062 9.27441" stroke="#000000" stroke-width="2.94034" stroke-linecap="round"/>
<path d="M31.8125 35.7432L37.1875 32.625" stroke="#000000" stroke-width="2.94034" stroke-linecap="round"/>
<path d="M20.5627 7.24322L22.0627 6.37012" stroke="#000000" stroke-width="2.94034" stroke-linecap="round"/>
<path d="M35.6248 21.6486L37.0623 20.8379" stroke="#000000" stroke-width="2.94034" stroke-linecap="round"/>
<path d="M8.37524 27.6357L6.75024 26.7002" stroke="#000000" stroke-width="2.94034" stroke-linecap="round"/>
<path d="M17.0001 38.4875L15.3751 37.552" stroke="#000000" stroke-width="2.94034" stroke-linecap="round"/>
<path d="M11.75 35.4313L6.75 32.5625" stroke="#000000" stroke-width="2.94034" stroke-linecap="round"/>
<path d="M17 14.9489L18.8125 13.8887" stroke="#000000" stroke-width="2.94034" stroke-linecap="round"/>
<path d="M26.7502 38.675L28.1252 37.8643" stroke="#000000" stroke-width="2.94034" stroke-linecap="round"/>
<path d="M11.9377 12.1696L16.7502 9.42554" stroke="#000000" stroke-width="2.94034" stroke-linecap="round"/>
<path d="M26.7502 26.888L31.7502 23.8945" stroke="#000000" stroke-width="2.94034" stroke-linecap="round"/>
<path d="M6.74976 15.2249L21.9998 23.8312M21.9998 23.8312V41.418M21.9998 23.8312L37.1873 14.9131" stroke="#000000" stroke-width="2.94034" stroke-linecap="round"/>
<path d="M17.3125 32.6248L12.375 29.8184" stroke="#000000" stroke-width="2.94034" stroke-linecap="round"/>
<path d="M22.2861 17.8002L32.3486 12.125" stroke="#000000" stroke-width="2.94034" stroke-linecap="round"/>
<path d="M62.9208 31.9568H53.0177V16.1966H62.4739C63.5559 16.1966 64.4654 16.3455 65.2025 16.6435C65.9395 16.9258 66.4962 17.357 66.8726 17.9372C67.249 18.5018 67.4371 19.1996 67.4371 20.0308C67.4371 21.003 67.1549 21.8185 66.5903 22.4771C66.0258 23.1201 65.0849 23.4886 63.7676 23.5827V23.7944C65.226 23.9042 66.3081 24.2962 67.0137 24.9705C67.7351 25.6449 68.0958 26.5152 68.0958 27.5816C68.0958 28.4754 67.9076 29.2517 67.5312 29.9103C67.1549 30.5689 66.5825 31.0786 65.8141 31.4393C65.0614 31.7843 64.0969 31.9568 62.9208 31.9568ZM56.5461 25.3704V28.7812H62.4974C63.2187 28.7812 63.7362 28.6558 64.0499 28.4049C64.3635 28.1383 64.5203 27.6913 64.5203 27.0641C64.5203 26.4368 64.3635 25.9977 64.0499 25.7468C63.7362 25.4959 63.2187 25.3704 62.4974 25.3704H56.5461ZM56.5461 19.3721V22.4536H62.074C62.7326 22.4536 63.2031 22.336 63.4853 22.1008C63.7676 21.8499 63.9087 21.4578 63.9087 20.9246C63.9087 20.3914 63.7598 19.9994 63.4618 19.7485C63.1639 19.4976 62.6856 19.3721 62.0269 19.3721H56.5461ZM73.8673 31.9568H70.3389V16.1966H73.8673V31.9568ZM83.2529 31.9568H71.3269V28.7812H83.2529V31.9568ZM93.7293 32.192C92.0043 32.192 90.4989 31.8627 89.213 31.2041C87.9427 30.5297 86.9626 29.5888 86.2726 28.3813C85.5983 27.1581 85.2611 25.7233 85.2611 24.0767C85.2611 22.4301 85.5983 21.003 86.2726 19.7955C86.9626 18.5723 87.9427 17.6314 89.213 16.9728C90.4989 16.2985 92.0043 15.9613 93.7293 15.9613C95.517 15.9613 97.046 16.2985 98.3163 16.9728C99.5865 17.6314 100.567 18.5723 101.257 19.7955C101.947 21.003 102.292 22.4301 102.292 24.0767C102.292 25.7233 101.947 27.1581 101.257 28.3813C100.567 29.5888 99.5865 30.5297 98.3163 31.2041C97.046 31.8627 95.517 32.192 93.7293 32.192ZM93.7293 28.8047C94.8898 28.8047 95.815 28.6558 96.505 28.3578C97.2107 28.0442 97.7203 27.5424 98.034 26.8524C98.3633 26.1624 98.528 25.2371 98.528 24.0767C98.528 22.9005 98.3633 21.9753 98.034 21.301C97.7203 20.611 97.2107 20.117 96.505 19.8191C95.815 19.5054 94.8898 19.3486 93.7293 19.3486C92.5845 19.3486 91.6672 19.5054 90.9772 19.8191C90.2872 20.117 89.7853 20.611 89.4717 21.301C89.1581 21.9753 89.0012 22.9005 89.0012 24.0767C89.0012 25.2371 89.1581 26.1624 89.4717 26.8524C89.7853 27.5424 90.2872 28.0442 90.9772 28.3578C91.6672 28.6558 92.5845 28.8047 93.7293 28.8047ZM112.84 32.192C111.115 32.192 109.617 31.8627 108.347 31.2041C107.092 30.5297 106.12 29.5888 105.43 28.3813C104.756 27.1581 104.418 25.7233 104.418 24.0767C104.418 22.4301 104.756 21.003 105.43 19.7955C106.12 18.5723 107.092 17.6314 108.347 16.9728C109.617 16.2985 111.115 15.9613 112.84 15.9613C114.486 15.9613 115.905 16.2201 117.097 16.7376C118.305 17.2551 119.238 17.9921 119.896 18.9487C120.555 19.9053 120.884 21.0579 120.884 22.4066V22.7594H116.956V22.4066C116.956 21.3716 116.635 20.6031 115.992 20.1013C115.364 19.5995 114.337 19.3486 112.91 19.3486C111.765 19.3486 110.84 19.5054 110.134 19.8191C109.444 20.117 108.943 20.611 108.629 21.301C108.315 21.9753 108.158 22.9005 108.158 24.0767C108.158 25.2371 108.315 26.1624 108.629 26.8524C108.943 27.5424 109.444 28.0442 110.134 28.3578C110.84 28.6558 111.765 28.8047 112.91 28.8047C114.337 28.8047 115.364 28.5538 115.992 28.052C116.635 27.5502 116.956 26.7818 116.956 25.7468V25.3939H120.884V25.7468C120.884 27.0797 120.555 28.2324 119.896 29.2046C119.238 30.1612 118.305 30.8983 117.097 31.4158C115.905 31.9333 114.486 32.192 112.84 32.192ZM139.161 31.9568H134.927L130.858 25.8879H125.871V22.4536H130.811L134.998 16.1966H139.232L133.751 23.9591L139.161 31.9568ZM126.883 31.9568H123.354V16.1966H126.883V31.9568ZM149.838 31.9568H146.31V16.1966H149.838V31.9568ZM155.695 19.3721H140.453V16.1966H155.695V19.3721ZM173.191 31.9568H169.663V16.1966H173.191V31.9568ZM161.43 31.9568H157.901V16.1966H161.43V31.9568ZM171.474 25.6292H158.889V22.4536H171.474V25.6292ZM179.553 31.9568H176.025V16.1966H179.553V31.9568ZM189.362 31.9568H177.013V28.7812H189.362V31.9568ZM189.009 25.6056H177.013V22.4536H189.009V25.6056ZM189.362 19.3721H177.013V16.1966H189.362V19.3721ZM200.013 32.192C198.288 32.192 196.782 31.8627 195.496 31.2041C194.226 30.5297 193.246 29.5888 192.556 28.3813C191.882 27.1581 191.544 25.7233 191.544 24.0767C191.544 22.4301 191.882 21.003 192.556 19.7955C193.246 18.5723 194.226 17.6314 195.496 16.9728C196.782 16.2985 198.288 15.9613 200.013 15.9613C201.8 15.9613 203.329 16.2985 204.6 16.9728C205.87 17.6314 206.85 18.5723 207.54 19.7955C208.23 21.003 208.575 22.4301 208.575 24.0767C208.575 25.7233 208.23 27.1581 207.54 28.3813C206.85 29.5888 205.87 30.5297 204.6 31.2041C203.329 31.8627 201.8 32.192 200.013 32.192ZM200.013 28.8047C201.173 28.8047 202.098 28.6558 202.788 28.3578C203.494 28.0442 204.004 27.5424 204.317 26.8524C204.647 26.1624 204.811 25.2371 204.811 24.0767C204.811 22.9005 204.647 21.9753 204.317 21.301C204.004 20.611 203.494 20.117 202.788 19.8191C202.098 19.5054 201.173 19.3486 200.013 19.3486C198.868 19.3486 197.95 19.5054 197.26 19.8191C196.57 20.117 196.069 20.611 195.755 21.301C195.441 21.9753 195.284 22.9005 195.284 24.0767C195.284 25.2371 195.441 26.1624 195.755 26.8524C196.069 27.5424 196.57 28.0442 197.26 28.3578C197.95 28.6558 198.868 28.8047 200.013 28.8047ZM214.583 31.9568H211.054V16.1966H219.758C221.059 16.1966 222.165 16.3847 223.075 16.7611C223.984 17.1218 224.674 17.655 225.145 18.3606C225.615 19.0663 225.85 19.921 225.85 20.9246C225.85 21.7871 225.686 22.5242 225.356 23.1358C225.027 23.7474 224.533 24.2413 223.874 24.6177C223.216 24.9784 222.392 25.2058 221.404 25.2999V25.488C222.11 25.6762 222.636 25.9585 222.981 26.3349C223.326 26.7112 223.647 27.1738 223.945 27.7227L226.227 31.9568H222.134L219.97 27.8638C219.75 27.4561 219.523 27.1346 219.287 26.8994C219.052 26.6642 218.746 26.4995 218.37 26.4054C218.009 26.2956 217.523 26.2408 216.912 26.2408H214.583V31.9568ZM214.583 19.3721V23.5827H219.734C220.566 23.5827 221.177 23.4416 221.569 23.1593C221.961 22.8613 222.157 22.2968 222.157 21.4656C222.157 20.6816 221.961 20.1405 221.569 19.8426C221.177 19.5289 220.566 19.3721 219.734 19.3721H214.583ZM237.55 26.8524H234.139L227.082 16.1966H231.434L234.445 20.807L235.762 22.9241H236.021L237.338 20.807L240.349 16.1966H244.725L237.55 26.8524ZM237.621 31.9568H234.069V24.7353H237.621V31.9568Z" fill="#000000"/>
</svg>
