<svg width="30" height="30" viewBox="0 0 30 30" fill="none" xmlns="http://www.w3.org/2000/svg">
<g clip-path="url(#clip0_436_159)">
<path d="M13.3956 20.606C13.3956 20.606 20.4159 19.7602 24.0901 21.8815L25.056 21.6227C25.5895 21.4798 25.9061 20.9315 25.7632 20.398L24.1939 14.5416C24.9697 14.1039 25.3827 13.1825 25.1415 12.2823C24.9003 11.3822 24.0819 10.7908 23.1913 10.7996L21.622 4.94317C21.4791 4.40971 20.9308 4.09312 20.3973 4.23606L19.4314 4.49488C17.3101 8.16912 10.8074 10.9468 10.8074 10.9468L6.94369 11.9821C5.87676 12.2679 5.24359 13.3646 5.52948 14.4315L7.08239 20.2271C7.36828 21.2941 8.46495 21.9272 9.53188 21.6413L10.4978 21.3825L12.7578 25.9533L14.6897 25.4357L13.3956 20.606ZM13.1692 12.0337C13.7913 11.7153 14.5542 11.301 15.3656 10.806C16.8588 9.89484 18.7174 8.59189 20.0977 6.98174L23.4238 19.3947C21.4233 18.6904 19.1623 18.4914 17.4135 18.4489C16.4633 18.4259 15.5954 18.4486 14.8975 18.4838L13.1692 12.0337ZM7.46133 13.9139L11.325 12.8786L12.8779 18.6742L9.01424 19.7095L7.46133 13.9139Z" fill="white"/>
</g>
<defs>
<clipPath id="clip0_436_159">
<rect width="24" height="24" fill="white" transform="translate(0.302734 6.51465) rotate(-15)"/>
</clipPath>
</defs>
</svg>
