<svg width="94" height="94" viewBox="0 0 94 94" fill="none" xmlns="http://www.w3.org/2000/svg">
<path d="M47 0.6875C21.4636 0.6875 0.6875 21.4636 0.6875 47C0.6875 72.5364 21.4636 93.3125 47 93.3125C72.5364 93.3125 93.3125 72.5364 93.3125 47C93.3125 21.4636 72.5364 0.6875 47 0.6875ZM71.1025 31.4786L41.1775 67.1036C40.8493 67.4946 40.4408 67.8105 39.9798 68.0298C39.5189 68.2492 39.0161 68.3669 38.5057 68.375H38.4455C37.9462 68.3748 37.4525 68.2697 36.9964 68.0664C36.5403 67.8631 36.1321 67.5662 35.7982 67.1949L22.9732 52.9449C22.6475 52.5995 22.3941 52.1924 22.2279 51.7476C22.0618 51.3028 21.9863 50.8293 22.0057 50.3549C22.0252 49.8805 22.1393 49.4148 22.3413 48.9852C22.5434 48.5555 22.8292 48.1705 23.1822 47.8529C23.5351 47.5353 23.948 47.2915 24.3965 47.1357C24.845 46.98 25.3201 46.9154 25.7939 46.9459C26.2677 46.9764 26.7307 47.1012 27.1555 47.3132C27.5804 47.5251 27.9586 47.8199 28.2679 48.1801L38.352 59.3841L65.6475 26.8964C66.2597 26.1885 67.126 25.75 68.0589 25.6757C68.9919 25.6013 69.9166 25.8971 70.6333 26.4991C71.3499 27.1011 71.8009 27.9609 71.8887 28.8927C71.9765 29.8245 71.6941 30.7534 71.1025 31.4786V31.4786Z" fill="#27AE60"/>
</svg>
